<mxfile host="app.diagrams.net" modified="2021-07-08T12:54:19.689Z" agent="5.0 (X11)" etag="SpOdbpg04571XOQktnQy" version="14.7.6" type="github">
  <diagram id="QHiWJeUl6QkeDt_geQ89" name="Page-1">
    <mxGraphModel dx="1673" dy="824" grid="1" gridSize="10" guides="1" tooltips="1" connect="1" arrows="1" fold="1" page="1" pageScale="1" pageWidth="1100" pageHeight="850" math="0" shadow="0">
      <root>
        <mxCell id="0" />
        <mxCell id="1" parent="0" />
        <mxCell id="NAhu-Gu6pzEje7RyhV-W-45" value="" style="group" vertex="1" connectable="0" parent="1">
          <mxGeometry x="940" y="250" width="630" height="242" as="geometry" />
        </mxCell>
        <mxCell id="NAhu-Gu6pzEje7RyhV-W-41" value="" style="rounded=0;whiteSpace=wrap;html=1;" vertex="1" parent="NAhu-Gu6pzEje7RyhV-W-45">
          <mxGeometry x="14.87603305785124" y="-8.653846153846153" width="585.1239669421487" height="224.99999999999997" as="geometry" />
        </mxCell>
        <mxCell id="NAhu-Gu6pzEje7RyhV-W-42" value="Devops/Operations" style="text;html=1;align=center;verticalAlign=middle;resizable=0;points=[];autosize=1;strokeColor=none;" vertex="1" parent="NAhu-Gu6pzEje7RyhV-W-45">
          <mxGeometry x="469.99570247933883" y="0.0015384615384608225" width="120" height="20" as="geometry" />
        </mxCell>
        <mxCell id="NAhu-Gu6pzEje7RyhV-W-39" value="" style="shape=image;html=1;verticalAlign=top;verticalLabelPosition=bottom;labelBackgroundColor=#ffffff;imageAspect=0;aspect=fixed;image=https://cdn4.iconfinder.com/data/icons/avatars-xmas-giveaway/128/afro_woman_female_person-128.png" vertex="1" parent="NAhu-Gu6pzEje7RyhV-W-45">
          <mxGeometry x="297.52" y="12.98" width="67.02" height="67.02" as="geometry" />
        </mxCell>
        <mxCell id="NAhu-Gu6pzEje7RyhV-W-40" value="" style="shape=image;html=1;verticalAlign=top;verticalLabelPosition=bottom;labelBackgroundColor=#ffffff;imageAspect=0;aspect=fixed;image=https://cdn1.iconfinder.com/data/icons/user-pictures/100/male3-128.png" vertex="1" parent="NAhu-Gu6pzEje7RyhV-W-45">
          <mxGeometry x="366.94" y="12.98" width="67.02" height="67.02" as="geometry" />
        </mxCell>
        <mxCell id="NAhu-Gu6pzEje7RyhV-W-23" value="deployment-repo" style="image;image=img/lib/atlassian/Bitbucket_Logo.svg;labelPosition=center;verticalLabelPosition=top;align=center;verticalAlign=bottom;" vertex="1" parent="NAhu-Gu6pzEje7RyhV-W-45">
          <mxGeometry x="218.18" y="18.75" width="91.82" height="61.25" as="geometry" />
        </mxCell>
        <mxCell id="NAhu-Gu6pzEje7RyhV-W-48" value="Deployment Pipeline to &lt;br&gt;&lt;div&gt;Office Kubernetes Cluser&lt;/div&gt;&lt;div&gt;&lt;br&gt;&lt;/div&gt;&lt;div&gt;Kubernetes config files&lt;br&gt;&lt;br&gt;&lt;br&gt;&lt;/div&gt;" style="text;html=1;align=center;verticalAlign=middle;resizable=0;points=[];autosize=1;strokeColor=none;" vertex="1" parent="NAhu-Gu6pzEje7RyhV-W-45">
          <mxGeometry x="270.00000000000006" y="85" width="150" height="90" as="geometry" />
        </mxCell>
        <mxCell id="NAhu-Gu6pzEje7RyhV-W-79" value="Deployment on Kubernetes it always take the latest pushed images" style="edgeLabel;html=1;align=center;verticalAlign=middle;resizable=0;points=[];labelBorderColor=#000000;labelBackgroundColor=#CDA2BE;" vertex="1" connectable="0" parent="NAhu-Gu6pzEje7RyhV-W-45">
          <mxGeometry x="250.00384410847164" y="216.34127694735866" as="geometry">
            <mxPoint x="33" y="-15" as="offset" />
          </mxGeometry>
        </mxCell>
        <mxCell id="NAhu-Gu6pzEje7RyhV-W-33" value="build and push&lt;br&gt;&lt;div&gt;&amp;nbsp;ready image&lt;/div&gt;&lt;div&gt;out of master&amp;nbsp; &lt;br&gt;&lt;br&gt;private-registry/nextjs-node:latest&lt;/div&gt;" style="edgeStyle=orthogonalEdgeStyle;rounded=0;orthogonalLoop=1;jettySize=auto;html=1;exitX=1;exitY=0.5;exitDx=0;exitDy=0;entryX=0.5;entryY=0;entryDx=0;entryDy=0;labelBorderColor=#000000;labelBackgroundColor=#CDA2BE;" edge="1" parent="1" source="NAhu-Gu6pzEje7RyhV-W-30" target="NAhu-Gu6pzEje7RyhV-W-36">
          <mxGeometry x="-0.0028" y="30" relative="1" as="geometry">
            <mxPoint x="760" y="210" as="targetPoint" />
            <mxPoint as="offset" />
          </mxGeometry>
        </mxCell>
        <mxCell id="NAhu-Gu6pzEje7RyhV-W-30" value="" style="rounded=0;whiteSpace=wrap;html=1;" vertex="1" parent="1">
          <mxGeometry x="21" y="50" width="589" height="320" as="geometry" />
        </mxCell>
        <mxCell id="NAhu-Gu6pzEje7RyhV-W-28" value="" style="rounded=0;whiteSpace=wrap;html=1;" vertex="1" parent="1">
          <mxGeometry x="20" y="380" width="590" height="300" as="geometry" />
        </mxCell>
        <mxCell id="NAhu-Gu6pzEje7RyhV-W-2" value="frontend-app" style="image;image=img/lib/atlassian/Bitbucket_Logo.svg;" vertex="1" parent="1">
          <mxGeometry x="288" y="70" width="57" height="50" as="geometry" />
        </mxCell>
        <mxCell id="NAhu-Gu6pzEje7RyhV-W-4" value="frontend-app" style="shape=image;html=1;verticalAlign=top;verticalLabelPosition=bottom;labelBackgroundColor=#ffffff;imageAspect=0;aspect=fixed;image=https://cdn4.iconfinder.com/data/icons/logos-and-brands/512/97_Docker_logo_logos-128.png" vertex="1" parent="1">
          <mxGeometry x="158" y="140" width="60" height="60" as="geometry" />
        </mxCell>
        <mxCell id="NAhu-Gu6pzEje7RyhV-W-8" value="" style="group" vertex="1" connectable="0" parent="1">
          <mxGeometry x="460" y="106" width="62" height="220" as="geometry" />
        </mxCell>
        <mxCell id="NAhu-Gu6pzEje7RyhV-W-6" value="backend-nginx:latest" style="shape=image;html=1;verticalAlign=top;verticalLabelPosition=bottom;labelBackgroundColor=#ffffff;imageAspect=0;aspect=fixed;image=https://cdn4.iconfinder.com/data/icons/logos-and-brands/512/97_Docker_logo_logos-128.png" vertex="1" parent="NAhu-Gu6pzEje7RyhV-W-8">
          <mxGeometry x="2" width="60" height="60" as="geometry" />
        </mxCell>
        <mxCell id="NAhu-Gu6pzEje7RyhV-W-7" value="backend-php:latest" style="shape=image;html=1;verticalAlign=top;verticalLabelPosition=bottom;labelBackgroundColor=#ffffff;imageAspect=0;aspect=fixed;image=https://cdn4.iconfinder.com/data/icons/logos-and-brands/512/97_Docker_logo_logos-128.png" vertex="1" parent="NAhu-Gu6pzEje7RyhV-W-8">
          <mxGeometry x="2" y="80" width="60" height="60" as="geometry" />
        </mxCell>
        <mxCell id="NAhu-Gu6pzEje7RyhV-W-9" value="&lt;div&gt;volumes:&lt;/div&gt;&lt;div&gt;- ./app/app&lt;br&gt;&lt;/div&gt;" style="text;html=1;align=center;verticalAlign=middle;resizable=0;points=[];autosize=1;strokeColor=none;" vertex="1" parent="1">
          <mxGeometry x="140" y="220" width="70" height="30" as="geometry" />
        </mxCell>
        <mxCell id="NAhu-Gu6pzEje7RyhV-W-10" value="Only&lt;br&gt;&lt;div&gt; pull latests&lt;/div&gt;&lt;div&gt;images&lt;/div&gt;&lt;div&gt; from Backend&lt;br&gt;&lt;/div&gt;&lt;div&gt;&lt;br&gt;&lt;/div&gt;&lt;div&gt;or pull&lt;br&gt; images with &lt;br&gt;&lt;br&gt;docker tag: web-XXXXX&lt;br&gt;&lt;/div&gt;" style="text;html=1;align=center;verticalAlign=middle;resizable=0;points=[];autosize=1;strokeColor=#666666;fillColor=#f5f5f5;fontColor=#333333;" vertex="1" parent="1">
          <mxGeometry x="295" y="170" width="140" height="130" as="geometry" />
        </mxCell>
        <mxCell id="NAhu-Gu6pzEje7RyhV-W-12" value="backend-app" style="image;image=img/lib/atlassian/Bitbucket_Logo.svg;" vertex="1" parent="1">
          <mxGeometry x="283" y="390" width="57" height="50" as="geometry" />
        </mxCell>
        <mxCell id="NAhu-Gu6pzEje7RyhV-W-13" value="frontend-app" style="shape=image;html=1;verticalAlign=top;verticalLabelPosition=bottom;labelBackgroundColor=#ffffff;imageAspect=0;aspect=fixed;image=https://cdn4.iconfinder.com/data/icons/logos-and-brands/512/97_Docker_logo_logos-128.png" vertex="1" parent="1">
          <mxGeometry x="490" y="432" width="60" height="60" as="geometry" />
        </mxCell>
        <mxCell id="NAhu-Gu6pzEje7RyhV-W-19" value="Only&lt;br&gt;&lt;div&gt; pull latests&lt;/div&gt;&lt;div&gt;images&lt;/div&gt;&lt;div&gt; from frontend &lt;br&gt;and mysql&lt;br&gt;&lt;/div&gt;&lt;div&gt;&lt;br&gt;&lt;/div&gt;&lt;div&gt;or pull&lt;br&gt; images with &lt;br&gt;&lt;br&gt;docker tag: web-XXXXX&lt;br&gt;&lt;/div&gt;" style="text;html=1;align=center;verticalAlign=middle;resizable=0;points=[];autosize=1;strokeColor=#666666;fillColor=#f5f5f5;fontColor=#333333;" vertex="1" parent="1">
          <mxGeometry x="303" y="480" width="140" height="150" as="geometry" />
        </mxCell>
        <mxCell id="NAhu-Gu6pzEje7RyhV-W-15" value="spl-craft-mysql-base:latest" style="shape=image;html=1;verticalAlign=top;verticalLabelPosition=bottom;labelBackgroundColor=#ffffff;imageAspect=0;aspect=fixed;image=https://cdn4.iconfinder.com/data/icons/logos-and-brands/512/97_Docker_logo_logos-128.png" vertex="1" parent="1">
          <mxGeometry x="490" y="520" width="60" height="60" as="geometry" />
        </mxCell>
        <mxCell id="NAhu-Gu6pzEje7RyhV-W-16" value="backend-nginx:latest" style="shape=image;html=1;verticalAlign=top;verticalLabelPosition=bottom;labelBackgroundColor=#ffffff;imageAspect=0;aspect=fixed;image=https://cdn4.iconfinder.com/data/icons/logos-and-brands/512/97_Docker_logo_logos-128.png" vertex="1" parent="1">
          <mxGeometry x="100" y="510" width="60" height="60" as="geometry" />
        </mxCell>
        <mxCell id="NAhu-Gu6pzEje7RyhV-W-17" value="backend-php:latest" style="shape=image;html=1;verticalAlign=top;verticalLabelPosition=bottom;labelBackgroundColor=#ffffff;imageAspect=0;aspect=fixed;image=https://cdn4.iconfinder.com/data/icons/logos-and-brands/512/97_Docker_logo_logos-128.png" vertex="1" parent="1">
          <mxGeometry x="220" y="510" width="60" height="60" as="geometry" />
        </mxCell>
        <mxCell id="NAhu-Gu6pzEje7RyhV-W-21" value="&lt;div&gt;volumes:&lt;/div&gt;&lt;div&gt;- ./app/app&lt;br&gt;&lt;/div&gt;" style="text;html=1;align=center;verticalAlign=middle;resizable=0;points=[];autosize=1;strokeColor=none;" vertex="1" parent="1">
          <mxGeometry x="90" y="600" width="70" height="30" as="geometry" />
        </mxCell>
        <mxCell id="NAhu-Gu6pzEje7RyhV-W-22" value="&lt;div&gt;volumes:&lt;/div&gt;&lt;div&gt;- ./app/app&lt;br&gt;&lt;/div&gt;" style="text;html=1;align=center;verticalAlign=middle;resizable=0;points=[];autosize=1;strokeColor=none;" vertex="1" parent="1">
          <mxGeometry x="210" y="600" width="70" height="30" as="geometry" />
        </mxCell>
        <mxCell id="NAhu-Gu6pzEje7RyhV-W-24" value="" style="shape=image;html=1;verticalAlign=top;verticalLabelPosition=bottom;labelBackgroundColor=#ffffff;imageAspect=0;aspect=fixed;image=https://cdn4.iconfinder.com/data/icons/avatars-xmas-giveaway/128/afro_woman_female_person-128.png" vertex="1" parent="1">
          <mxGeometry x="148" y="50" width="70" height="70" as="geometry" />
        </mxCell>
        <mxCell id="NAhu-Gu6pzEje7RyhV-W-1" value="" style="shape=image;html=1;verticalAlign=top;verticalLabelPosition=bottom;labelBackgroundColor=#ffffff;imageAspect=0;aspect=fixed;image=https://cdn1.iconfinder.com/data/icons/user-pictures/100/male3-128.png" vertex="1" parent="1">
          <mxGeometry x="218" y="50" width="70" height="70" as="geometry" />
        </mxCell>
        <mxCell id="NAhu-Gu6pzEje7RyhV-W-26" value="" style="shape=image;html=1;verticalAlign=top;verticalLabelPosition=bottom;labelBackgroundColor=#ffffff;imageAspect=0;aspect=fixed;image=https://cdn4.iconfinder.com/data/icons/avatars-xmas-giveaway/128/afro_woman_female_person-128.png" vertex="1" parent="1">
          <mxGeometry x="110" y="390" width="70" height="70" as="geometry" />
        </mxCell>
        <mxCell id="NAhu-Gu6pzEje7RyhV-W-27" value="" style="shape=image;html=1;verticalAlign=top;verticalLabelPosition=bottom;labelBackgroundColor=#ffffff;imageAspect=0;aspect=fixed;image=https://cdn1.iconfinder.com/data/icons/user-pictures/100/male3-128.png" vertex="1" parent="1">
          <mxGeometry x="180" y="390" width="70" height="70" as="geometry" />
        </mxCell>
        <mxCell id="NAhu-Gu6pzEje7RyhV-W-29" value="Backend Development" style="text;html=1;align=center;verticalAlign=middle;resizable=0;points=[];autosize=1;strokeColor=none;" vertex="1" parent="1">
          <mxGeometry x="470" y="390" width="140" height="20" as="geometry" />
        </mxCell>
        <mxCell id="NAhu-Gu6pzEje7RyhV-W-31" value="Frontend Development" style="text;html=1;align=center;verticalAlign=middle;resizable=0;points=[];autosize=1;strokeColor=none;" vertex="1" parent="1">
          <mxGeometry x="460" y="60" width="140" height="20" as="geometry" />
        </mxCell>
        <mxCell id="NAhu-Gu6pzEje7RyhV-W-35" value="build and push&lt;br&gt;&lt;div&gt;&amp;nbsp;ready image&lt;/div&gt;&lt;div&gt;out of master&amp;nbsp; &lt;br&gt;&lt;br&gt;privat-registry/craft-nginx:latest&lt;/div&gt;&lt;div&gt;privat-registry/craft-php:latest&lt;/div&gt;" style="edgeStyle=orthogonalEdgeStyle;rounded=0;orthogonalLoop=1;jettySize=auto;html=1;exitX=1;exitY=0.5;exitDx=0;exitDy=0;entryX=0.5;entryY=1;entryDx=0;entryDy=0;labelBorderColor=#000000;labelBackgroundColor=#CDA2BE;" edge="1" parent="1" target="NAhu-Gu6pzEje7RyhV-W-36">
          <mxGeometry x="-0.2317" y="8" relative="1" as="geometry">
            <mxPoint x="610" y="587.5" as="sourcePoint" />
            <mxPoint y="1" as="offset" />
          </mxGeometry>
        </mxCell>
        <mxCell id="NAhu-Gu6pzEje7RyhV-W-59" style="edgeStyle=orthogonalEdgeStyle;rounded=0;orthogonalLoop=1;jettySize=auto;html=1;exitX=0;exitY=0.5;exitDx=0;exitDy=0;entryX=1;entryY=0.75;entryDx=0;entryDy=0;dashed=1;startArrow=none;startFill=0;endArrow=classic;endFill=1;" edge="1" parent="1" source="NAhu-Gu6pzEje7RyhV-W-36" target="NAhu-Gu6pzEje7RyhV-W-7">
          <mxGeometry relative="1" as="geometry">
            <Array as="points">
              <mxPoint x="640" y="371" />
              <mxPoint x="640" y="231" />
            </Array>
          </mxGeometry>
        </mxCell>
        <mxCell id="NAhu-Gu6pzEje7RyhV-W-60" style="edgeStyle=orthogonalEdgeStyle;rounded=0;orthogonalLoop=1;jettySize=auto;html=1;exitX=0;exitY=0.5;exitDx=0;exitDy=0;entryX=1;entryY=0.5;entryDx=0;entryDy=0;dashed=1;startArrow=none;startFill=0;endArrow=classic;endFill=1;" edge="1" parent="1" source="NAhu-Gu6pzEje7RyhV-W-36" target="NAhu-Gu6pzEje7RyhV-W-6">
          <mxGeometry relative="1" as="geometry">
            <Array as="points">
              <mxPoint x="640" y="371" />
              <mxPoint x="640" y="136" />
            </Array>
          </mxGeometry>
        </mxCell>
        <mxCell id="NAhu-Gu6pzEje7RyhV-W-63" style="edgeStyle=orthogonalEdgeStyle;rounded=0;orthogonalLoop=1;jettySize=auto;html=1;exitX=0;exitY=0.5;exitDx=0;exitDy=0;entryX=1;entryY=0.5;entryDx=0;entryDy=0;dashed=1;startArrow=none;startFill=0;endArrow=classic;endFill=1;" edge="1" parent="1" source="NAhu-Gu6pzEje7RyhV-W-36" target="NAhu-Gu6pzEje7RyhV-W-13">
          <mxGeometry relative="1" as="geometry">
            <Array as="points">
              <mxPoint x="810" y="462" />
            </Array>
          </mxGeometry>
        </mxCell>
        <mxCell id="NAhu-Gu6pzEje7RyhV-W-64" style="edgeStyle=orthogonalEdgeStyle;rounded=0;orthogonalLoop=1;jettySize=auto;html=1;exitX=0;exitY=0.5;exitDx=0;exitDy=0;entryX=1;entryY=0.5;entryDx=0;entryDy=0;dashed=1;startArrow=none;startFill=0;endArrow=classic;endFill=1;" edge="1" parent="1" source="NAhu-Gu6pzEje7RyhV-W-36" target="NAhu-Gu6pzEje7RyhV-W-15">
          <mxGeometry relative="1" as="geometry">
            <Array as="points">
              <mxPoint x="810" y="510" />
              <mxPoint x="630" y="510" />
              <mxPoint x="630" y="550" />
            </Array>
          </mxGeometry>
        </mxCell>
        <mxCell id="NAhu-Gu6pzEje7RyhV-W-69" style="rounded=0;orthogonalLoop=1;jettySize=auto;html=1;exitX=1;exitY=0.5;exitDx=0;exitDy=0;dashed=1;startArrow=classic;startFill=1;endArrow=none;endFill=0;entryX=0;entryY=0.25;entryDx=0;entryDy=0;" edge="1" parent="1" source="NAhu-Gu6pzEje7RyhV-W-36" target="NAhu-Gu6pzEje7RyhV-W-23">
          <mxGeometry relative="1" as="geometry" />
        </mxCell>
        <mxCell id="NAhu-Gu6pzEje7RyhV-W-75" value="Trigger on latest pushed image &lt;br&gt;&lt;div&gt;from backend or frontend&lt;/div&gt;&lt;div&gt;this pipeline starts autmatically&lt;br&gt;&lt;/div&gt;" style="edgeLabel;html=1;align=center;verticalAlign=middle;resizable=0;points=[];labelBorderColor=#000000;labelBackgroundColor=#CDA2BE;" vertex="1" connectable="0" parent="NAhu-Gu6pzEje7RyhV-W-69">
          <mxGeometry x="-0.1364" y="-2" relative="1" as="geometry">
            <mxPoint x="38" y="-9" as="offset" />
          </mxGeometry>
        </mxCell>
        <mxCell id="NAhu-Gu6pzEje7RyhV-W-36" value="" style="shape=image;verticalLabelPosition=bottom;labelBackgroundColor=#ffffff;verticalAlign=top;aspect=fixed;imageAspect=0;image=data:image/jpeg,/9j/4AAQSkZJRgABAQAAAQABAAD/2wCEAAoHCBQUFBUVExUYGBgYGhgYHBsbGBgZHBkbGBgbHRsZFSIbIS0kGx0rIhkYJjclKi4xNDQ0GiM6QDoyPi4zNDEBCwsLEA8QHxISHzEqJCsxMzE3MTMzMzExPj43ND4zMz0+PjYxMzEzMzQzOTEzMzkzMTYzMTMzMzMzNTE0MzMzPP/AABEIAOEA4QMBIgACEQEDEQH/xAAbAAEAAgMBAQAAAAAAAAAAAAAABgcDBAUBAv/EAEQQAAIBAgIGBgcECQQBBQAAAAECAAMRBCEFBhIxQVEiYXGBkaEHEzJScrHBQmKCkhQjM3OistHS8CRDwuE0U1Rjg5P/xAAZAQEAAwEBAAAAAAAAAAAAAAAAAQMEAgX/xAApEQADAAIABAUFAQEBAAAAAAAAAQIDEQQSITETQVFhgSIycZGhQrFS/9oADAMBAAIRAxEAPwC5oiIAiIgCIiAIifDEAXOQEA+4kU0vrth6V1p/rn+6bIO1uP4QZDtJ624utces9WvupdfFva87dUAs/G6So0f2tVE+JgCewbz3Th4rXnCJ7Jep8KW/n2ZVzG5JOZO8nee2eQTon1f0iD/bw5PWzgeQU/Oaj+kKtwo0x2sx/pIZEAmI9INfjSp/xj6zPS9Ib/aw6nsqEfNTIPEAsjD+kCgf2lKonWNlgPMHynZwWs2Eq5LWUHk10N+Q27X7pT0QNF83vPZSOA0pXoH9TUdOoG696m6nwkt0Vr+wsuJp3Hvpke9SbHtBHZA0WFE0dHaSpYhdqjUVxxtvHUwOYPbN6CBERAEREAREQBERAEREAREQBESFa064CntUsMQzi4apkVQ8l4M3kOs3AA7OndYqOFFnO1UIuEW20eRb3V6z3Xlb6b1ir4okO2ynCmtwv4uLnt7gJyqjszFmJZmNySSSTzJO+fMEiImzgsBVrNsUkZ2+6Mh8R3KOskQSa0SbaN1AdrHEVAo91BtN3scge4ySYLVDB07fqts86hL37R7PlBGypLzZTA1W9mm57Ec/IS7KGGSmLU0VRyVQo8hM0DZR50bXG+jVH/1v/Sa9RGXJwV+IEfOXxPCAcjA2UNEufF6BwtW+3QQk8QoVvzLY+cj+P1Aotc0ajoeTdNfo3mYGyuInb0pqvisPctT20H20uw7xbaHaRbrnEEEmXDYh6bB6bsjDcymx7Ozqlgara3vWYUqyFm4Oikjleoo9neOkMs9wkCwWEerUWnTF2bwA4ljwA5yz9AaJp4WnsrmxsXfix+ijgPrOlOziqSJHPZr0qnOZ5DWgns9iIkEiIiAIiIAiIgCIkQ111j9QvqaTfrGHSYb6anlyY8OQz5QDQ1y1qILYfDtY5h3B3c0Q8+Z4bt+6BREEifVOmzMFQFmY2AAJJPIAb5s6N0fUxDinSXaY58go4s54D/MzLT1f1cpYVbjpVCOlUIz7E91erjxvAI5oLUS9nxZtx9Wp/nYfJfHhJzhcMlNQlNFVRuCgAeUzxBAiIgCIiAIiIAiIgHkjmn9VsNXBcj1T79tRvP313N5Hrnfq1AoJJsBvM4OKxpqNyUbh9T1zuIdFd5FJo6C0UmHSw6Tt7T239Q5KOU7KNNJGmwjS9zopVb6m6jTZpvNBGmwrSqkWyzeiR6prXhVqpS9ZtFm2Sy5ohO7abdvyyva+dpIZUWiIiAIiIAiIgHL0/pRcLRao2Z3KvvMdw7N5PUDKdxFd6js7naZiWY8yfkOqd7XXS/r8QUU9CldV5Fvtt4iw6l65HIJE2dHYGpXqLTpi7N4AcWY8AP8AM5rAXyGZPAZk9QlsapaBGFpXcD1rgFj7o4IOoceZ7oBu6C0NTwtMImZNi7kZu3M8gOA4eJPWiIIERPIB5eJDNcNNbqVF2DK12ZWItYGyXHG5ueVh3d/QmlkxKBlPSFgynep+oOdj/wBgUzmmqcryK1kl1o60REuLBERAPJjqVAoJJsBmSYq1AoLMQABck7gBzkQ0rpY1mstwgOQ977x+glmPG7fsVZMihe5sY/SJqtlko3Dn1nrmFGmkjTOjTdyKVpGLndPbN1GmwjT5weBd7G2yvM/QcZ2sPglTrPM/TlM+S5RfjimR3TWlxhEVnR2LXCi1hce8x3eZkG0rp+viLh22U9xcl/Fxbv8AKWzpPR6Yik1OoLqw7weBXkRKc0ngHw9V6T+0p38GB3MvUR/ThM9U2aplI1JZuounPXU/U1DepTAsTvdNwPWRkD3HjKym3ozHPQq06iZsrDL3gciveLjvnJ0XhEw4eqHVWAIDAMAQQRcXsQcweqZoIEREATi61aT/AEbDO4NnPQT4m4jsF2/DO1K09I2P26yUQcqa7R+N+fYoX8xgEPiJ9IhYhVFySABzJNgB3wdEt1A0N6yoa7joUjZeupvv+EWPaV5SzJz9C6PGHoU6Q+yOkfeY5se8kzoQciInkA8Miusen9m9Kic9zMPs81X73M8O3c1k06QTRpEhtzNut1J19fDhnuiJnm8Xxevpn5Zjz5/8ya9SfOExr0HFSm1mHgw4qw4g/wCZz6qTVqTHjeuqMqei1NBaaTFJtLk4sHQnNT9QeB+txOvKSwmNeg61KTbLL4EcVYcVPL62MtXV3TiYultqCGU7Lr7rW4HiDwM9fDl5lp9zfhy83R9zsT4qOFBJIAAuScgAN5MOwAJJsBmSeFpAdY9PmsfV0zamDmffI4n7vId/K2zDhrJWkdZsqxztmbTmmzWbZS4pg9hYjierkO/s5yNPrReia1exVbL7zZL3e93SX6P1epU7Fum3NhkOwf1vN1ZMeJcqMM48mV8zOJo/RlSrYgWXmch3cTJLgdFJTsT0m5n6DhOjaY6lRVF2IAHEkAecxXmqzbGGY6mSJyK+n6K5KSx+6MvE5eF5oVdPO3sgKPzHzy8pE4bfkTWaF5klJkS1w0WmKVDTZRVQ2vnYod4JA4HMd/OPXM2bMT2n5cpmpmd+Bruzjx2+yOJgdTqYsars55L0F795PiJKNH6PpUv2dJE6wOke1jme8z4pmbdMyHKXYlU33N+icpkmvSM2JS+5cux7ERIJPJSOlsX66vVqXuHdiPhvZf4QJb2nsR6vDV3G9ab27dkhfMiUqIJQki1GwPrcWjEdGmDUPaMl77kH8MjssT0a4a1KtU4u4UdiLfLvc+EAm8REECeT2IBBNZ9FlGasWBDvYCxuLqTn+WYdGavPXQVFcAEkWIPA9U7mu37Gn+8H8jzPqj/4w+J/nPM8CKzuWumtmPw5eVp+mziPqXUP+6v5TMLajVT/ALqflM+tM601ttlokIqkgHZBLWNiTe4A5ZTsaq6ebEhkqAB1ANxkGB424EHf2idxOB1yyiZnDT5UV5p/RrYaoabMGOyHuAQM75Z9ksTVPQTYRKgd1bbIa4BFgBxvIh6Rv/KP7tfm0smvRV02WF1tmMyCORA9odXGX4ISt+wxQlT15EX0pia2NJpYZf1INmc5KxHXxUchcnsm9ovVWlTs1T9Y3WOiOxePffumzidLlRalh6r2yHQKLlw6Qv4CcbF43SVTJaRpjqC37yx+Vp6k87nU6S/PUiuRVutt/joSyriERbsyqBxJAHnOHjdbaC5Jeofuiy95P0BkYqaBxrnaemzNzZ0J8WaBq1i//St+On/dLI4fEvutP5K64jK/tlr4NzE62V3yUCmOobTeLZeQnNau7m7szHmxJ8L7puJqtivcUfiX6TZp6sYnjsj8X/UvTwR9rRS1mr7kzRpmbdMzdTVuvxKfmb+2bFPV6qN7J4n+2cVmx+p3OG/Q1KZm1TM200G43uvgZnTQ5H2x4f8AcorLPqXTjr0NemZt0zMeMwpp06lQHbKIzBbW2tlSbXzte3KQ0a8MN1Af/of7JU7kvmKLApmbQlbjX2oN1FPzsfpJVqnpxsXTqM6qrI9rLe2yVBBN+N9rwlVPZak0d+exE5JI5r3U2cFVHvFF/jUnyBlTyz/SK1sIOuoo/hY/SVhBKEtrUijsYKlzbbY/idreVpUsubVlbYPDfukPioP1gM6sREECInkAjWu37Gn+8H8jzPqkf9MPib5yMaw4h2r1FZiVVrhSSQMuA4bz4zSpY6qq7K1GA5KxAz7J5NcSpzOtexheZLI3r2NHEe03afnO9qGf9S/7s/zLOBUMxUsS9MlqbMpItdWKm3LLhkJVhvltUURXLSZ0/SKf9Sf3a/NpZtm2RskA24gkeREpTG4hqh2qjMzWtdiWNhwz4SfejzG1KqVvWOz2ZQNpi1hs7hfdPQwXun7mrDadv3OvjNIYunc/oy1F5pUN/wApS9+y85w10UEh6DqRvG0LjtBAksAmrjMDTqi1SmrdozHYd47p6MXH+5/TLLjJ/mjhJrnQ406o7k/um3T1qw54sO1T9LzSxmptM50nKnkekvd9oeJnDxWr2Ip702xzTpeXteU0Tj4euz0Z6yZ47rZME1hwx3VPFXHzE2F0rQO6qnewHzldoJsIJ1XBz5NkTxV+aRYS42mdzoexgfrMoqA7iD3yAIJnRZU+F9yxcS/QncSH0nI3EjvM26eIf32/MZW8GvMtWdPyJG6ggg7iCD3yiXQqSp3qSp7QbS3aeJf3j85yqmrWFdizU82JJIdxck3JttWnDxtHayIrWTn0ZVeniF5rTbwLg/MTdOpmFPvr2P8A1BnU1f1cpYV3em9RtpdkhypG8G42VE5ctHapMkE9nk9nJJFPSKt8IDyqIfJh9ZV8tnXultYKr9002/jUHyJlTQShLl1Za+Dw37pB4KB9JTUtrUettYKlzXbU9ztbytAZIYiIIE8nsQCLac0DTtWrlm2tlmt0dm4XIbr2yHGQ4yw9ZX2cLUPUB+ZgPrK8M8bjombXKvLf9PP4mUq6GvUmrUm1UmrUlMGdHxhaIerTQkgO6ISLXAZwCRfjYy1dX9AphFdabs22QTtbOVhbLZAlT0qmzURvddW/KwP0l4CenwqWmzZwyT2z6iImw2CeT2IBp4rR9Kp7aKTztY9xGc4+I1ZXfTYjqbMeIzHnJHE7nJU9mV1jmu6IXW0ZVT2kJHNekPLMd8xpJxNavgqb+0ovzGR8RLlxP/pFL4b0ZGEE2EE6FTQ9vYbub+o/pNZsK6+0p7d48p34k12OPDqe6PUE2EEwoJsIJzRZJmQTaoiayCbdISmi2TLERKyw5+nMN6zDVkG9qbgfFsnZ87SlAZfUpLTOE9TXq0rWCOwHwk3T+ErBKNKWH6NMTenWp+64cdjrbLvTzleSQaj4/wBVjEBPRqA0z2tYr37QA/FALbiIggREQDSx9Km6bFUjZYgZnZud4AN9+XlIxpDVNhc0H2h7rWv3Hce+3bOrrVg3q0lFNbkMGIBF7BWGV9+8ZSLYPS1egbBjYZFHBIHVY5jutPP4mo5tWvlGXM53ql8nKxmHem2y6Mp5EWv2cx1iaFSWFQ1jw9cbGIULf3gHQ99su8C3OaukNTadQbeGqbN8wCdpT8JGY7c5SuHTW8b2v6U+DvrL3/0ruuMj2S8cNU2kVveAPiLyntLaHr4e/rUIX3hmp/EMh2GxlraAqbWFw7c6VM9+wLzVwqabTLeGTTaZ0oiJsNYiIgCIiAIiIAiIgGpikRUZ3AAVSxIyyUXJ8pBtHa7IbCtSK/eQ7Q7wbEec72vWP9VhGUHpVSKY7Dm3dsgj8QlVTpU0Ryplw6N0nRrfsqiueV7MO1TmPCdemMpQ4PHlLX1GWp+iK9R3YuzMNpixCiygC5yHRv3yG9hTokkREgkSt/SPo/Zq06wGTrsN8Sbiesqf4JZE4+tGjP0nDVEAuw6afEuYHeLr+KAU5PVYggg2IIII3gjcRPIg6Lo0FpEYmglUb2FmHJhkw8Qe606crDUHTPqqpoubJVItyWpuH5hYdoWWfByIiIBwdYNMPhmpbKqwba2gbg5bNrEbt54GYaek8JigFqgK24BuiR8LD+oPVN3SmDw9dhTqEbYF1s2ywBO9eYy8pHcfqrUW5pEOvLJW88j5dkwZnlVNpJr0M2R2m2uq9DJpPU85tQe/3WyPcw+o75GjVxODewL0ieB9k9xurdovNuhpXEYZtlWYW3o4JHgc17rTv4TWvD1l2MVTC3yO0NtD25XHeLDnKo8Knufpf8KVyU+n0s09H69KejiaduBdRcfiU527CeyS/R1ak9JGobJpkdHZFlsDawHCxBFuFpFtI6l0Ky7eFqBb5gX20PYb3HiR1Ttaq4Cph8MlKqBtKz7jcEF2YEHv42m3Hzp6r9mnHzp6r9nciIl5cIiIAiIgCIiAIicTWjTAwtBnBG23RQfeI39gGfgOMAguvmk/XYn1am6UQU7WPtHxAX8JkZgm+ZzPM7z2xBJkw9BndKae07Kg7WNh85d+Dw606aU19lFCjsUW+krr0eaM26zVmHRpCy9bsLeS3/MssyAz2IiCBERAKq150R6iuaijoVSWHJX+2vf7Q7TykZl06b0amJotSbK+at7rD2WH+ZgkcZTmLwz0qj06g2XQ7JHX1cwciDxBEEmGWrqfp8YmnsOf1qABvvruDj5Hr7RKqmfBYx6LrUptsspuD8weYO4iAXpE42r+nExdPaXoutg6XzU9XNTwP1BE7EEEP1r0ZWeoKiKWUIB0c2BBY7t/Hhec3AawV6WRbbUZbLXJHUG3jvv2TsY7WN6OIdCoZAVA4MLqpNjuOZOXnNn1mDxmRsHPPoP3H7XZmJ5lJVbeOtVvszG5Tpua0zDT0xg8UAlcKrcnyz+4w3eIM52lNSb3bDv17Lf8WH1HfPjSeqNRbmiwccjZW/tbynDoaTxOEbZVitt6ODs/lO4dYt2yXT7ZZ+URVeWRfJqO2KwT/bosT+FvmjecsHU7TL4uiz1QoZXKdEEAgKrAkEmx6XlOZgtc6FVdjF0wt8ibbaN2i1x4Edc7+hMFhqaMcLs7DttdFtpb2A6OZtuGU04Uk/pe0WYp0/pra9DrRETSaRERAEREARExu4AJJAAFyTkABvJ5CAfOIrqis7sFVQSSdwA3mVBrHplsVWLm4RejTU8FvvP3jvPcOE6WuGsv6S3qqRIoqd+71jDifujgO/laLwSJ90qbOyqgJZiFAG8kmwA758Sd+j/QWf6VUHMUwfBn+YHf1QCW6B0YMNQSkLEgXY+8xzY9nAdQE6cRBAiIgCIiAJE9c9XP0hPW0h+tQbh9tR9n4hw7xytLIgFCRLD1x1V9ZtYjDr097oPt82Qe/wAxx7d9eQSbGAxr0HWpSYq6+BHFWHEHlLR1c1lp4oBTZKoGaE77b2pn7Q6t48zU09RyCCCQQbgg2II3EEbjAJZpl9rEVj98j8pt9JpNOfS0kxJNS7EkktxJJuSec3kcMLqbieFnxXNNtd33PMyY6VNs6WB1jxFGw2ttfda58DvHy6p36WsGDxShMQoU8nsVvzVuHadkyE1Jr1JZiz0lruvRiMtLp3XuS7SmoysNrC1LcQjG6n4WGYHaD2z71D0dWw9TEpWRk2hTIJzVtkuDssMj7Q433SJ4DTNfDn9VUKj3D0kP4TkO0WMnWq2tX6U5pPT2XCl9pTdWAKg5HNT0hlnuOc24qimmlp/wvxuHSa6MlcRE2GsREQBESMab1woULqh9bU91T0VP3m3dwueyAd3GYpKSF6jBVXeSf8ueqVnrRrU+KvTp3SiDu+1UtxfkOS954W5Wl9MVsU+1Va4HsqMkX4R9Tc9c58EiInW1e0E+LqbK9FF9trZL1Dmx5d8EmxqroBsXU6VxSQjbbdf/AONes8eQ7Re2adMKAqgAAAAAWAAFgB1TDgMElGmtOmuyiiwHzJ5k85tQciIiAIiIAiIgCIiAJD9atUVr7VWhZau9l3K/9rde48ecmEQCiK9FkZkdSrKbFSLEHrmOXJpvQNHFraotmA6LjJh/UdRlb6b1Yr4W7EbdMfbUGwH3xvT5dcEnDn0jkG4JB6p8xIa33INpMY32hfynprqeqakSiuFxvstfgqrh4r2M7mdzUGpbGqPeR18g3/GRyeo5BuCQeYNj5SI4fle0zieG5aTTL5mOpVVRdmCjrIHzlHNiah3u5/E39ZhImk06LjxWs2Dp+1XQ9SnbP8F5H8f6QaYuKFJmPvOQo7QBcnylexA0dbSmsWJxFxUqEIfsJ0U7CBmw+ImcmIgkRM+DwlSq4SkjOx4KPMncB1nKT3V/UdEs+Ks7bwgzQfH756t3bBBHdW9VqmKId7pR97i3VTv/ADbu3dLPwWCp0UWnTUKq7gPmeZ6zM6i2QyAn3BAiIgCIiAIiIAiIgCIiAIiIAiIgEa0vqdhq92Ueqc/aQCxP3l3HuseuQzSepmKpXKKKq809rvU536heWxEAoaojKSrgqw3hgQR2g5ifMvLFYSnVGzURXHJlDDznExepeDe9qbITxRmHgDdR4QTsqiJYdf0eUz+zruvxKr/LZmq/o7fhiFPbTI/5mBsg0Sbj0d1P/cL+Rv7plpejv38Tf4advMuflAIHEs3Dag4Vc3ao/UWCj+EA+c7WC0DhaVjTooCNzEbTD8TXPnA2VRo/QmJr29VSdgftEbKfmawPdJdorUACzYmpf7lO4HexzPcB2yeRA2auCwNOiuxSRUXkBv62O8nrM24iCBERAEREAREQBERAEREAREQBERAEREAREQBERAEREAREQBERAEREAREQBERAEREAREQBERAP/9k=;" vertex="1" parent="1">
          <mxGeometry x="810" y="326" width="90" height="90" as="geometry" />
        </mxCell>
        <mxCell id="NAhu-Gu6pzEje7RyhV-W-72" style="edgeStyle=none;rounded=0;orthogonalLoop=1;jettySize=auto;html=1;exitX=0.5;exitY=0;exitDx=0;exitDy=0;dashed=1;startArrow=classic;startFill=1;endArrow=none;endFill=0;" edge="1" parent="1" source="NAhu-Gu6pzEje7RyhV-W-53">
          <mxGeometry relative="1" as="geometry">
            <mxPoint x="1210" y="460" as="targetPoint" />
          </mxGeometry>
        </mxCell>
        <mxCell id="NAhu-Gu6pzEje7RyhV-W-53" value="backend-nginx:latest" style="shape=image;html=1;verticalAlign=top;verticalLabelPosition=bottom;labelBackgroundColor=#ffffff;imageAspect=0;aspect=fixed;image=https://cdn4.iconfinder.com/data/icons/logos-and-brands/512/97_Docker_logo_logos-128.png" vertex="1" parent="1">
          <mxGeometry x="1140" y="540" width="60" height="60" as="geometry" />
        </mxCell>
        <mxCell id="NAhu-Gu6pzEje7RyhV-W-70" style="rounded=0;orthogonalLoop=1;jettySize=auto;html=1;exitX=0.25;exitY=0;exitDx=0;exitDy=0;dashed=1;startArrow=classic;startFill=1;endArrow=none;endFill=0;" edge="1" parent="1" source="NAhu-Gu6pzEje7RyhV-W-54">
          <mxGeometry relative="1" as="geometry">
            <mxPoint x="1210" y="460" as="targetPoint" />
          </mxGeometry>
        </mxCell>
        <mxCell id="NAhu-Gu6pzEje7RyhV-W-54" value="backend-php:latest" style="shape=image;html=1;verticalAlign=top;verticalLabelPosition=bottom;labelBackgroundColor=#ffffff;imageAspect=0;aspect=fixed;image=https://cdn4.iconfinder.com/data/icons/logos-and-brands/512/97_Docker_logo_logos-128.png" vertex="1" parent="1">
          <mxGeometry x="1250" y="540" width="60" height="60" as="geometry" />
        </mxCell>
        <mxCell id="NAhu-Gu6pzEje7RyhV-W-58" style="edgeStyle=orthogonalEdgeStyle;rounded=0;orthogonalLoop=1;jettySize=auto;html=1;exitX=1;exitY=0.5;exitDx=0;exitDy=0;entryX=0;entryY=0.5;entryDx=0;entryDy=0;startArrow=classic;startFill=1;endArrow=none;endFill=0;dashed=1;" edge="1" parent="1" source="NAhu-Gu6pzEje7RyhV-W-57" target="NAhu-Gu6pzEje7RyhV-W-36">
          <mxGeometry relative="1" as="geometry">
            <Array as="points">
              <mxPoint x="640" y="310" />
              <mxPoint x="640" y="371" />
            </Array>
          </mxGeometry>
        </mxCell>
        <mxCell id="NAhu-Gu6pzEje7RyhV-W-61" value="pull with&lt;br&gt;&lt;div&gt;&amp;nbsp;docker-compose&lt;/div&gt;&lt;div&gt;image: &lt;br&gt;&lt;/div&gt;" style="edgeLabel;html=1;align=center;verticalAlign=middle;resizable=0;points=[];labelBorderColor=#000000;" vertex="1" connectable="0" parent="NAhu-Gu6pzEje7RyhV-W-58">
          <mxGeometry x="0.1714" y="1" relative="1" as="geometry">
            <mxPoint x="25" y="10" as="offset" />
          </mxGeometry>
        </mxCell>
        <mxCell id="NAhu-Gu6pzEje7RyhV-W-57" value="spl-craft-mysql-base:latest" style="shape=image;html=1;verticalAlign=top;verticalLabelPosition=bottom;labelBackgroundColor=#ffffff;imageAspect=0;aspect=fixed;image=https://cdn4.iconfinder.com/data/icons/logos-and-brands/512/97_Docker_logo_logos-128.png" vertex="1" parent="1">
          <mxGeometry x="461" y="280" width="60" height="60" as="geometry" />
        </mxCell>
        <mxCell id="NAhu-Gu6pzEje7RyhV-W-65" value="pull with&lt;br&gt;&lt;div&gt;&amp;nbsp;docker-compose&lt;/div&gt;&lt;div&gt;image: &lt;br&gt;&lt;/div&gt;" style="edgeLabel;html=1;align=center;verticalAlign=middle;resizable=0;points=[];labelBorderColor=#000000;" vertex="1" connectable="0" parent="1">
          <mxGeometry x="810" y="371" as="geometry">
            <mxPoint x="-26" y="92" as="offset" />
          </mxGeometry>
        </mxCell>
        <mxCell id="NAhu-Gu6pzEje7RyhV-W-74" style="edgeStyle=none;rounded=0;orthogonalLoop=1;jettySize=auto;html=1;exitX=0.25;exitY=0;exitDx=0;exitDy=0;dashed=1;startArrow=classic;startFill=1;endArrow=none;endFill=0;" edge="1" parent="1" source="NAhu-Gu6pzEje7RyhV-W-66">
          <mxGeometry relative="1" as="geometry">
            <mxPoint x="1210" y="460" as="targetPoint" />
          </mxGeometry>
        </mxCell>
        <mxCell id="NAhu-Gu6pzEje7RyhV-W-66" value="spl-craft-mysql-base:latest" style="shape=image;html=1;verticalAlign=top;verticalLabelPosition=bottom;labelBackgroundColor=#ffffff;imageAspect=0;aspect=fixed;image=https://cdn4.iconfinder.com/data/icons/logos-and-brands/512/97_Docker_logo_logos-128.png" vertex="1" parent="1">
          <mxGeometry x="1380" y="540" width="60" height="60" as="geometry" />
        </mxCell>
        <mxCell id="NAhu-Gu6pzEje7RyhV-W-67" value="external&lt;br&gt;redis server&lt;br&gt; production like" style="outlineConnect=0;dashed=0;verticalLabelPosition=bottom;verticalAlign=top;align=center;html=1;shape=mxgraph.aws3.redis;fillColor=#2E73B8;gradientColor=none;" vertex="1" parent="1">
          <mxGeometry x="1363.81" y="670" width="76.19" height="80" as="geometry" />
        </mxCell>
        <mxCell id="NAhu-Gu6pzEje7RyhV-W-73" style="edgeStyle=none;rounded=0;orthogonalLoop=1;jettySize=auto;html=1;exitX=0.75;exitY=0;exitDx=0;exitDy=0;dashed=1;startArrow=classic;startFill=1;endArrow=none;endFill=0;" edge="1" parent="1" source="NAhu-Gu6pzEje7RyhV-W-68">
          <mxGeometry relative="1" as="geometry">
            <mxPoint x="1210" y="460" as="targetPoint" />
          </mxGeometry>
        </mxCell>
        <mxCell id="NAhu-Gu6pzEje7RyhV-W-68" value="frontend-app:latest" style="shape=image;html=1;verticalAlign=top;verticalLabelPosition=bottom;labelBackgroundColor=#ffffff;imageAspect=0;aspect=fixed;image=https://cdn4.iconfinder.com/data/icons/logos-and-brands/512/97_Docker_logo_logos-128.png" vertex="1" parent="1">
          <mxGeometry x="1020" y="540" width="60" height="60" as="geometry" />
        </mxCell>
        <mxCell id="NAhu-Gu6pzEje7RyhV-W-78" value="" style="group" vertex="1" connectable="0" parent="1">
          <mxGeometry x="1131.08" y="640" width="178.92000000000007" height="160" as="geometry" />
        </mxCell>
        <mxCell id="NAhu-Gu6pzEje7RyhV-W-47" value="k8s-m" style="aspect=fixed;html=1;points=[];align=center;image;fontSize=12;image=img/lib/mscae/Kubernetes.svg;" vertex="1" parent="NAhu-Gu6pzEje7RyhV-W-78">
          <mxGeometry x="51" width="72.92" height="70" as="geometry" />
        </mxCell>
        <mxCell id="NAhu-Gu6pzEje7RyhV-W-76" value="k8s-n01" style="aspect=fixed;html=1;points=[];align=center;image;fontSize=12;image=img/lib/mscae/Kubernetes.svg;" vertex="1" parent="NAhu-Gu6pzEje7RyhV-W-78">
          <mxGeometry y="90" width="72.92" height="70" as="geometry" />
        </mxCell>
        <mxCell id="NAhu-Gu6pzEje7RyhV-W-77" value="k8s-n02" style="aspect=fixed;html=1;points=[];align=center;image;fontSize=12;image=img/lib/mscae/Kubernetes.svg;" vertex="1" parent="NAhu-Gu6pzEje7RyhV-W-78">
          <mxGeometry x="106" y="90" width="72.92" height="70" as="geometry" />
        </mxCell>
        <mxCell id="NAhu-Gu6pzEje7RyhV-W-80" style="edgeStyle=none;rounded=0;orthogonalLoop=1;jettySize=auto;html=1;exitX=0.5;exitY=1;exitDx=0;exitDy=0;dashed=1;labelBackgroundColor=#CDA2BE;startArrow=none;startFill=0;endArrow=classic;endFill=1;" edge="1" parent="1" source="NAhu-Gu6pzEje7RyhV-W-23">
          <mxGeometry relative="1" as="geometry">
            <mxPoint x="1204" y="440" as="targetPoint" />
          </mxGeometry>
        </mxCell>
      </root>
    </mxGraphModel>
  </diagram>
</mxfile>
